<mxfile host="app.diagrams.net" modified="2023-09-02T04:39:08.531Z" agent="Mozilla/5.0 (Macintosh; Intel Mac OS X 10_15_7) AppleWebKit/537.36 (KHTML, like Gecko) Chrome/116.0.0.0 Safari/537.36 Edg/116.0.1938.62" etag="ZjcFfG7yJyWIKk2mF_gL" version="21.7.2" type="device">
  <diagram name="第 1 页" id="B9O1SwVaRe9_33SscROM">
    <mxGraphModel dx="954" dy="648" grid="1" gridSize="10" guides="1" tooltips="1" connect="1" arrows="1" fold="1" page="1" pageScale="1" pageWidth="827" pageHeight="1169" math="0" shadow="0">
      <root>
        <mxCell id="0" />
        <mxCell id="1" parent="0" />
        <mxCell id="tHwWpFpVrTYLtAb0eUNS-1" value="RaftPoller" style="html=1;" diagramCategory="uml" diagramName="Object" vertex="1" parent="1">
          <mxGeometry x="230" y="340" width="110" height="50" as="geometry" />
        </mxCell>
        <mxCell id="tHwWpFpVrTYLtAb0eUNS-2" value="ApplyPoller" style="html=1;" diagramCategory="uml" diagramName="Object" vertex="1" parent="1">
          <mxGeometry x="510" y="340" width="110" height="50" as="geometry" />
        </mxCell>
        <mxCell id="tHwWpFpVrTYLtAb0eUNS-3" value="triat PollHandler" style="swimlane;fontStyle=1;align=center;verticalAlign=top;childLayout=stackLayout;horizontal=1;startSize=26;horizontalStack=0;resizeParent=1;resizeParentMax=0;resizeLast=0;collapsible=1;marginBottom=0;" diagramCategory="uml" diagramName="Class" vertex="1" parent="1">
          <mxGeometry x="360" y="160" width="160" height="130" as="geometry" />
        </mxCell>
        <mxCell id="tHwWpFpVrTYLtAb0eUNS-4" value="+ begin" style="text;strokeColor=none;fillColor=none;align=left;verticalAlign=top;spacingLeft=4;spacingRight=4;overflow=hidden;rotatable=0;points=[[0,0.5],[1,0.5]];portConstraint=eastwest;" vertex="1" parent="tHwWpFpVrTYLtAb0eUNS-3">
          <mxGeometry y="26" width="160" height="26" as="geometry" />
        </mxCell>
        <mxCell id="tHwWpFpVrTYLtAb0eUNS-5" value="+ handle_control" style="text;strokeColor=none;fillColor=none;align=left;verticalAlign=top;spacingLeft=4;spacingRight=4;overflow=hidden;rotatable=0;points=[[0,0.5],[1,0.5]];portConstraint=eastwest;" vertex="1" parent="tHwWpFpVrTYLtAb0eUNS-3">
          <mxGeometry y="52" width="160" height="26" as="geometry" />
        </mxCell>
        <mxCell id="tHwWpFpVrTYLtAb0eUNS-6" value="+ handle_normal" style="text;strokeColor=none;fillColor=none;align=left;verticalAlign=top;spacingLeft=4;spacingRight=4;overflow=hidden;rotatable=0;points=[[0,0.5],[1,0.5]];portConstraint=eastwest;" vertex="1" parent="tHwWpFpVrTYLtAb0eUNS-3">
          <mxGeometry y="78" width="160" height="26" as="geometry" />
        </mxCell>
        <mxCell id="tHwWpFpVrTYLtAb0eUNS-7" value="+ light_end" style="text;strokeColor=none;fillColor=none;align=left;verticalAlign=top;spacingLeft=4;spacingRight=4;overflow=hidden;rotatable=0;points=[[0,0.5],[1,0.5]];portConstraint=eastwest;" vertex="1" parent="tHwWpFpVrTYLtAb0eUNS-3">
          <mxGeometry y="104" width="160" height="26" as="geometry" />
        </mxCell>
        <mxCell id="tHwWpFpVrTYLtAb0eUNS-8" value="" style="endArrow=none;html=1;edgeStyle=orthogonalEdgeStyle;entryX=0.5;entryY=0;entryDx=0;entryDy=0;" diagramCategory="uml" diagramName="Association1" edge="1" parent="1" target="tHwWpFpVrTYLtAb0eUNS-1">
          <mxGeometry relative="1" as="geometry">
            <mxPoint x="360" y="174.984375" as="sourcePoint" />
            <mxPoint x="285" y="290" as="targetPoint" />
          </mxGeometry>
        </mxCell>
        <mxCell id="tHwWpFpVrTYLtAb0eUNS-9" value="parent" style="resizable=0;html=1;align=left;verticalAlign=bottom;labelBackgroundColor=#ffffff;fontSize=10;" connectable="0" vertex="1" parent="tHwWpFpVrTYLtAb0eUNS-8">
          <mxGeometry x="-1" relative="1" as="geometry">
            <mxPoint x="-40" as="offset" />
          </mxGeometry>
        </mxCell>
        <mxCell id="tHwWpFpVrTYLtAb0eUNS-10" value="child" style="resizable=0;html=1;align=right;verticalAlign=bottom;labelBackgroundColor=#ffffff;fontSize=10;" connectable="0" vertex="1" parent="tHwWpFpVrTYLtAb0eUNS-8">
          <mxGeometry x="1" relative="1" as="geometry" />
        </mxCell>
        <mxCell id="tHwWpFpVrTYLtAb0eUNS-11" value="" style="endArrow=none;html=1;edgeStyle=orthogonalEdgeStyle;entryX=0.5;entryY=0;entryDx=0;entryDy=0;exitX=0.994;exitY=0.097;exitDx=0;exitDy=0;exitPerimeter=0;" diagramCategory="uml" diagramName="Association1" edge="1" parent="1" source="tHwWpFpVrTYLtAb0eUNS-3">
          <mxGeometry relative="1" as="geometry">
            <mxPoint x="645.02" y="174.984375" as="sourcePoint" />
            <mxPoint x="570.02" y="340" as="targetPoint" />
          </mxGeometry>
        </mxCell>
        <mxCell id="tHwWpFpVrTYLtAb0eUNS-12" value="parent" style="resizable=0;html=1;align=left;verticalAlign=bottom;labelBackgroundColor=#ffffff;fontSize=10;" connectable="0" vertex="1" parent="tHwWpFpVrTYLtAb0eUNS-11">
          <mxGeometry x="-1" relative="1" as="geometry">
            <mxPoint x="10.96" as="offset" />
          </mxGeometry>
        </mxCell>
        <mxCell id="tHwWpFpVrTYLtAb0eUNS-13" value="child" style="resizable=0;html=1;align=right;verticalAlign=bottom;labelBackgroundColor=#ffffff;fontSize=10;" connectable="0" vertex="1" parent="tHwWpFpVrTYLtAb0eUNS-11">
          <mxGeometry x="1" relative="1" as="geometry" />
        </mxCell>
        <mxCell id="tHwWpFpVrTYLtAb0eUNS-14" value="" style="rounded=1;whiteSpace=wrap;html=1;fillColor=none;dashed=1;" vertex="1" parent="1">
          <mxGeometry x="120" y="120" width="640" height="300" as="geometry" />
        </mxCell>
      </root>
    </mxGraphModel>
  </diagram>
</mxfile>
